<svg width="32" height="42" viewBox="0 0 32 42" fill="none" xmlns="http://www.w3.org/2000/svg">
<path d="M3.94853 12.6015C4.15325 10.5569 5.87381 9 7.92863 9H23.4797C25.5043 9 27.2096 10.5127 27.4511 12.5228L30.3347 36.5228C30.6208 38.904 28.7616 41 26.3633 41H5.52562C3.15894 41 1.30974 38.9564 1.54553 36.6015L3.94853 12.6015Z" stroke="black" stroke-width="2"/>
<path d="M24 14C24 -3.04804 8 -3.6163 8 14" stroke="black" stroke-width="2"/>
<path d="M7 13C7 14.3114 9 14.3551 9 13" stroke="black" stroke-width="2"/>
<path d="M23 13C23 14.3114 25 14.3551 25 13" stroke="black" stroke-width="2"/>
<path d="M24.4957 21.0661C24.4957 21.0661 26 30.5 26.5 33.5C27 36.5 24.0001 36.9187 22.9999 36.9187C20.7594 36.9188 18 37 18 37" stroke="#D52383" stroke-width="2"/>
</svg>
