<svg width="24" height="38" viewBox="0 0 24 38" fill="none" xmlns="http://www.w3.org/2000/svg">
<path d="M23 12.4444C23 13.9467 22.3239 16.2416 21.201 18.9546C20.0948 21.6271 18.613 24.5726 17.121 27.3227C15.6307 30.0697 14.1392 32.6056 13.0195 34.4557C12.6288 35.1013 12.2836 35.6629 12 36.1202C11.7164 35.6629 11.3712 35.1013 10.9805 34.4557C9.86085 32.6056 8.36927 30.0697 6.87898 27.3227C5.38699 24.5726 3.90515 21.6271 2.79898 18.9546C1.67606 16.2416 1 13.9467 1 12.4444C1 6.08926 5.95883 1 12 1C18.0412 1 23 6.08926 23 12.4444Z" stroke="black" stroke-width="2"/>
<circle cx="12" cy="12" r="6" stroke="#D52383" stroke-width="2"/>
</svg>
