<svg width="200" height="52" viewBox="0 0 200 52" fill="none" xmlns="http://www.w3.org/2000/svg">
<g clip-path="url(#clip0)">
<path d="M40.3215 41.0143C38.2107 41.0264 36.6389 41.0113 34.2727 41.0183C34.2657 39.5196 34.2395 39.3353 34.2425 37.7781C34.183 36.5439 30.8048 30.7274 27.3081 26.3879C24.557 22.9744 22.6765 21.7573 18.7567 20.0288C17.4388 22.319 16.6993 27.8362 16.7547 29.9919C16.8454 33.5162 17.2086 37.5252 18.007 40.9861C18.9037 44.0465 20.5279 47.5678 23.2296 51.7844C22.6901 51.7813 17.6398 51.7813 17.1753 51.7813C16.8645 51.7813 13.4862 46.8076 12.5941 43.4782C11.1281 38.0053 10.785 33.5908 10.785 31.9233C10.785 25.1466 11.6792 21.1311 13.2238 18.0369C11.4752 17.4621 7.9886 17.3453 6.06572 18.5009C7.52564 18.9679 8.58154 20.3356 8.58154 21.9517C8.58154 22.855 8.25207 23.6812 7.70448 24.3159L7.69843 24.323L7.69742 24.325C7.42035 24.6736 7.08232 24.9441 6.68787 25.1376H6.68687L6.68485 25.1386C6.17252 25.4166 5.58361 25.5753 4.95945 25.5753C4.79219 25.5753 4.62746 25.5642 4.46626 25.5421C2.12474 25.4318 -0.000152588 22.9472 -0.000152588 20.7175C-0.000152588 13.4073 7.47224 11.3575 13.7391 12.4522C15.2232 12.7116 15.0036 12.761 15.862 12.9131C22.2452 3.57476 28.5499 0.125462 39.6046 2.35968e-05C40.3678 -0.00199148 40.263 0.361729 40.264 0.55568C40.2882 5.86086 40.3235 40.6118 40.3215 41.0138V41.0143ZM111.536 0.0453627H117.175V39.8174H111.536V0.0453627ZM173.358 16.2163C172.033 14.7725 170.69 13.5252 168.827 12.9383C165.677 11.9464 161.955 12.5494 159.409 14.6939C159.072 14.9821 158.748 15.2879 158.438 15.6118C158.205 15.8304 157.98 16.0561 157.763 16.2894C157.362 14.7519 155.235 11.1333 153.995 10.1812C153.931 10.1323 153.852 10.095 153.737 10.095C153.594 10.095 153.499 10.1504 153.432 10.2381C152.955 10.8734 150.289 12.5751 149.279 13.5025C149.134 13.6355 149.107 13.7977 149.107 13.8924C149.107 13.9786 149.175 14.0405 149.269 14.1121C150.645 15.1519 151.475 17.4687 151.95 20.4787C151.908 25.8801 151.798 33.488 151.713 40.0864H157.896V39.2471V37.5212V26.9904C157.896 19.6016 165.145 16.3982 169.099 20.1487L173.358 16.2153V16.2163ZM89.8273 17.3584H93.5315L93.5113 8.80337C93.4302 3.40046 97.6674 0.139064 102.25 0.139064C106.11 0.139064 108.358 3.13296 108.358 5.99537C108.358 6.89157 108.059 7.67141 107.422 8.31119C107.278 8.45577 107.125 8.58474 106.962 8.69859C106.316 9.25777 105.567 9.5963 104.553 9.5963C103.538 9.5963 102.452 9.10715 101.777 8.33285C101.682 8.23613 101.602 8.13437 101.537 8.02656C101.118 7.42859 100.872 6.5878 100.872 5.91527C100.872 5.24274 100.997 4.82663 101.22 4.35157C100.004 4.9969 99.3973 6.45027 99.3979 8.71169C99.3989 11.5147 99.4049 14.4138 99.4135 17.3584H105.848V21.8102H99.4271C99.4472 28.0332 99.4709 34.3424 99.4709 40.2697H93.5859L93.542 21.8102H89.8273V17.3584ZM70.271 17.3503H73.6689V10.3091H79.5539L79.5544 17.3503H85.7815V21.8021H79.5549L79.5554 31.6236C79.5549 33.883 80.7307 35.4865 82.0818 35.4663C84.1367 35.4361 85.3236 34.0311 85.844 32.9203C87.3024 33.9857 88.2731 34.8059 89.5154 35.6754C88.5935 37.4194 86.2671 40.1952 82.4073 40.1952C77.825 40.1952 73.6618 36.9711 73.6684 31.5309V21.8016H70.2705V17.3498L70.271 17.3503ZM67.5758 16.3569C66.2504 14.9136 64.9084 13.6657 63.0449 13.0789C59.8954 12.0869 56.1735 12.6904 53.6275 14.8345C53.29 15.1226 52.9665 15.4289 52.6567 15.7523C52.4225 15.971 52.1978 16.1967 51.9817 16.4299C51.5802 14.8924 49.4533 11.2739 48.2125 10.3217C48.149 10.2734 48.0694 10.2356 47.9556 10.2356C47.8125 10.2356 47.7168 10.291 47.6503 10.3787C47.1732 11.0139 44.5068 12.7156 43.4967 13.6431C43.3516 13.7761 43.3249 13.9383 43.3249 14.033C43.3249 14.1191 43.3924 14.1811 43.4871 14.2526C44.8634 15.2924 45.6931 17.6092 46.1682 20.6193C46.1254 26.0207 46.0166 33.6286 45.9314 40.2269H52.1147V39.3876V37.6617V27.131C52.1147 19.7422 59.3634 16.5387 63.317 20.2893L67.5758 16.3559V16.3569ZM199.857 40.234C197.755 40.2446 196.091 40.2229 193.748 40.2304V39.2632C192.643 34.9751 185.596 28.6005 180.276 25.7663C177.588 30.0115 176.181 35.1308 176.335 40.2249L170.276 40.2093C170.48 21.2354 183.419 9.75398 199.091 9.57615C199.853 9.57363 199.996 9.98672 199.997 10.1807C200.022 15.4854 199.859 39.831 199.856 40.2345L199.857 40.234ZM193.751 29.0322C193.753 24.6993 193.754 20.3618 193.754 16.0541C189.979 16.8889 186.712 18.714 184.06 21.1855C187.936 23.1875 189.572 24.3658 193.751 29.0322ZM121.921 30.214C122.908 33.5863 124.711 36.1822 127.34 37.9993C127.561 38.1726 127.785 38.3373 128.015 38.4965C128.951 39.1327 129.813 39.5211 130.602 39.6612C133.133 40.5166 135.71 40.3937 138.331 39.2955C141.109 38.1318 143.255 36.1393 144.776 33.3193C145.805 31.5858 146.482 29.61 146.805 27.3914C147.251 24.326 146.952 21.4223 145.907 18.6833C145.477 17.4964 144.935 16.4188 144.282 15.4521C142.326 12.3852 139.721 10.5278 136.455 9.87892C132.918 9.17616 128.924 10.2729 126.329 12.8048C125.982 13.1484 125.651 13.5091 125.336 13.8869C123.237 16.1448 121.936 18.9261 121.431 22.2308C121.025 24.8907 121.164 27.6282 121.921 30.214H121.921ZM135.552 16.1498C137.952 17.0757 139.945 19.8006 140.514 23.3633C141.072 26.875 139.819 31.2871 136.799 33.2789C136.395 33.4986 135.967 33.6643 135.519 33.7681C132.102 34.559 128.719 31.4961 127.776 26.864C127.544 25.8942 127.572 25.3874 127.633 24.391C127.969 19.6258 130.915 15.9045 134.387 15.9785C134.785 15.9866 135.174 16.046 135.552 16.1498H135.552ZM34.2455 26.0584L34.2435 6.50367C28.3827 7.5374 25.1374 10.3258 21.9203 14.8446C28.4456 18.0687 30.5997 20.3059 34.2455 26.0579V26.0584Z" fill="#1F9C3D"/>
</g>
<defs>
<clipPath id="clip0">
<rect width="200" height="51.7844" fill="white"/>
</clipPath>
</defs>
</svg>
