<svg width="80" height="53" viewBox="0 0 80 53" fill="none" xmlns="http://www.w3.org/2000/svg">
<path d="M50.5549 9.21836H29.4513V43.6867H50.5549V9.21836Z" fill="#FF5F00"/>
<path d="M31.6249 26.4556C31.6223 23.1366 32.3747 19.8605 33.8252 16.8752C35.2756 13.8899 37.3861 11.2737 39.997 9.22445C36.7633 6.68314 32.8799 5.10285 28.7906 4.66419C24.7013 4.22553 20.5711 4.94621 16.872 6.74384C13.1729 8.54148 10.0542 11.3436 7.87226 14.8298C5.69035 18.3161 4.53326 22.3459 4.53326 26.4586C4.53326 30.5714 5.69035 34.6012 7.87226 38.0875C10.0542 41.5737 13.1729 44.3758 16.872 46.1734C20.5711 47.9711 24.7013 48.6917 28.7906 48.2531C32.8799 47.8144 36.7633 46.2341 39.997 43.6928C37.3853 41.643 35.2743 39.0258 33.8238 36.0393C32.3734 33.0529 31.6214 29.7756 31.6249 26.4556V26.4556Z" fill="#EB001B"/>
<path d="M73.3694 40.0396V39.3333H73.6738V39.1871H72.9492V39.3333H73.2354V40.0396H73.3694ZM74.7759 40.0396V39.1871H74.5567L74.3009 39.796L74.0452 39.1871H73.826V40.0396H73.9843V39.3942L74.2218 39.9482H74.3862L74.6236 39.3942V40.0396H74.7759Z" fill="#F79E1B"/>
<path d="M75.4639 26.4556C75.4638 30.5687 74.3064 34.5987 72.1241 38.0851C69.9418 41.5715 66.8226 44.3735 63.1231 46.1709C59.4235 47.9683 55.2929 48.6885 51.2033 48.2492C47.1138 47.8099 43.2304 46.2288 39.9969 43.6867C42.6068 41.6357 44.7167 39.0187 46.1675 36.0333C47.6183 33.0478 48.3722 29.7719 48.3722 26.4525C48.3722 23.1332 47.6183 19.8573 46.1675 16.8718C44.7167 13.8864 42.6068 11.2694 39.9969 9.21836C43.2304 6.67626 47.1138 5.0952 51.2033 4.65591C55.2929 4.21662 59.4235 4.93683 63.1231 6.73422C66.8226 8.5316 69.9418 11.3336 72.1241 14.82C74.3064 18.3064 75.4638 22.3364 75.4639 26.4495V26.4556Z" fill="#F79E1B"/>
</svg>
