<svg width="28" height="40" viewBox="0 0 28 40" fill="none" xmlns="http://www.w3.org/2000/svg">
<mask id="path-1-inside-1" fill="white">
<path fill-rule="evenodd" clip-rule="evenodd" d="M15.4381 5C12.1244 5 9.43814 7.68629 9.43814 11H7.43814C7.43814 6.58172 11.0199 3 15.4381 3V5Z"/>
</mask>
<path fill-rule="evenodd" clip-rule="evenodd" d="M15.4381 5C12.1244 5 9.43814 7.68629 9.43814 11H7.43814C7.43814 6.58172 11.0199 3 15.4381 3V5Z" fill="#C4C4C4"/>
<path d="M9.43814 11V13H11.4381V11H9.43814ZM15.4381 5V7H17.4381V5H15.4381ZM7.43814 11H5.43814V13H7.43814V11ZM15.4381 3H17.4381V1H15.4381V3ZM11.4381 11C11.4381 8.79086 13.229 7 15.4381 7V3C11.0199 3 7.43814 6.58172 7.43814 11H11.4381ZM7.43814 13H9.43814V9H7.43814V13ZM15.4381 1C9.91529 1 5.43814 5.47715 5.43814 11H9.43814C9.43814 7.68629 12.1244 5 15.4381 5V1ZM17.4381 5V3H13.4381V5H17.4381Z" fill="#D52383" mask="url(#path-1-inside-1)"/>
<path fill-rule="evenodd" clip-rule="evenodd" d="M22.4382 10C22.4382 14.4183 18.8564 18 14.4382 18C10.0199 18 6.43817 14.4183 6.43817 10C6.43817 5.58172 10.0199 2 14.4382 2C18.8564 2 22.4382 5.58172 22.4382 10ZM19.432 18.6657C22.4244 16.9375 24.4382 13.7039 24.4382 10C24.4382 4.47715 19.961 0 14.4382 0C8.91532 0 4.43817 4.47715 4.43817 10C4.43817 13.4365 6.17162 16.4682 8.81183 18.2682C3.77363 20.0055 1.24596 29.7757 0.169115 35.608C-0.262361 37.9449 1.57127 40 3.94768 40H23.5877C25.9515 40 27.7805 37.9648 27.3615 35.6385C26.3748 30.1593 24.0858 21.1698 19.432 18.6657ZM14.4382 20H10.4096C9.55433 20 8.70389 20.3741 7.80869 21.2657C6.89134 22.1793 6.03323 23.5404 5.26002 25.2294C3.71585 28.6024 2.71926 32.8114 2.13587 35.9711C1.94798 36.9888 2.72806 38 3.94768 38H23.5877C24.8017 38 25.5744 36.9993 25.3932 35.9929C24.8252 32.8389 23.8377 28.6312 22.2649 25.2594C20.6049 21.7006 18.7481 20 16.8382 20H14.4382Z" fill="black"/>
</svg>
