<svg width="80" height="51" viewBox="0 0 80 51" fill="none" xmlns="http://www.w3.org/2000/svg">
<g clip-path="url(#clip0)">
<path d="M80 0.00347137H0V50.5972H80V0.00347137Z" fill="#FEFEFE"/>
<path fill-rule="evenodd" clip-rule="evenodd" d="M80 43.1788H0.148041V50.5972H80V43.1788Z" fill="#F9B500"/>
<path fill-rule="evenodd" clip-rule="evenodd" d="M79.852 0.00347137H0V7.86702H79.852V0.00347137Z" fill="#2A3979"/>
<path fill-rule="evenodd" clip-rule="evenodd" d="M60.1628 26.4428C60.3405 25.5526 61.0511 23.8018 61.3768 22.9116C61.8209 21.784 62.1762 20.4784 62.6795 19.4398L64.1303 26.4428H60.1628ZM39.6151 14.1579L34.8187 14.1875C34.4634 14.781 33.0422 22.3181 32.7461 23.6535C32.3612 25.5823 30.9104 31.8137 30.7624 33.2084H35.6181L39.6151 14.1579ZM53.7084 14.7217L53.1458 14.4546C52.9682 14.3952 52.7905 14.3359 52.6129 14.3062C52.228 14.1875 51.9023 14.0985 51.547 14.0392C49.1784 13.5941 46.4545 13.8018 44.3819 14.87C41.4508 16.4131 40.0592 19.5882 41.4804 22.1994C43.0496 25.1372 47.1947 25.5526 47.6684 27.244C48.3494 29.7366 44.1451 29.7663 41.8653 29.1431C41.0955 28.9057 40.5033 28.5793 39.8224 28.3419L38.9637 32.5259C42.0429 33.5348 45.2406 33.9799 48.4974 32.8227C50.9252 31.9621 53.5307 29.4992 52.7313 25.879C51.9911 22.7336 48.6158 22.1104 46.7506 20.6267C45.2406 19.4101 46.3064 18.0451 48.1717 17.8374C50.3035 17.6 51.2213 18.2528 52.909 18.6683L53.7084 14.7217ZM9.88898 14.2766L9.80016 14.603C10.1851 15.0184 12.9978 15.2855 14.9223 16.5614C15.6329 17.0362 15.7513 18.0154 16.0178 19.054L18.9193 30.4191C19.097 31.0719 19.3338 32.8523 19.7779 33.2084H24.8409L32.6573 14.1875L27.5352 14.1579L22.5315 27.0066C21.7913 23.4754 21.1695 19.7959 20.4885 16.2647C20.0444 14.0095 18.4752 14.1579 16.1954 14.1579C15.6921 14.1579 10.3627 14.0095 9.88898 14.2766ZM58.7121 30.3597L64.9593 30.3894L65.5218 33.2084L70.0518 33.1787L66.114 14.1579C64.7816 14.1579 63.2716 14.0985 61.9689 14.1579C60.6662 14.2172 60.1332 14.9294 59.7187 15.968C58.9489 17.8374 52.8793 32.2292 52.6129 33.2084L57.7054 33.1787L58.7121 30.3597Z" fill="#2A3979"/>
</g>
<defs>
<clipPath id="clip0">
<rect width="80" height="50.6007" fill="white"/>
</clipPath>
</defs>
</svg>
